<svg xmlns="http://www.w3.org/2000/svg" id="Livello_1" width="528.79" height="102.37" viewBox="0 0 528.79 102.37"><defs><style>.cls-1{fill:#76caeb;}.cls-1,.cls-2,.cls-3,.cls-4,.cls-5,.cls-6,.cls-7,.cls-8,.cls-9,.cls-10,.cls-11,.cls-12,.cls-13,.cls-14,.cls-15,.cls-16,.cls-17,.cls-18,.cls-19,.cls-20{stroke-width:0px;}.cls-2{fill:#0086bd;}.cls-3{fill:#3bbbe5;}.cls-4{fill:#25964e;}.cls-5{fill:#e3e175;}.cls-6{fill:#1d1d1b;}.cls-7{fill:#1b1b1b;}.cls-8{fill:#317ab3;}.cls-9{fill:#009bd9;}.cls-10{fill:#868686;}.cls-11{fill:#387d88;}.cls-12{fill:#0092c9;}.cls-13{fill:#5bb151;}.cls-14{fill:#8fc04b;}.cls-15{fill:#a5c958;}.cls-16{fill:#00a8df;}.cls-17{fill:#d2d93e;}.cls-21{isolation:isolate;}.cls-18{fill:#a1d8ef;}.cls-19{fill:#038bc1;}.cls-20{fill:#249074;}</style></defs><g class="cls-21"><g class="cls-21"><path class="cls-7" d="M6.09,57.01c-1.81,0-3.3-.65-4.46-1.81C-.05,53.52,0,51.46,0,48.6s-.05-4.93,1.63-6.6c1.16-1.16,2.65-1.81,4.46-1.81,2.11,0,3.42.74,4.6,1.91l-2.14,2.14c-.72-.72-1.3-1.16-2.46-1.16-.88,0-1.58.33-2.05.86-.63.7-.81,1.49-.81,4.67s.19,3.97.81,4.67c.46.54,1.16.86,2.05.86,1.16,0,1.74-.44,2.46-1.16l2.14,2.14c-1.19,1.16-2.49,1.91-4.6,1.91Z"></path><path class="cls-7" d="M21.75,55.52c-.74.79-1.98,1.49-3.76,1.49s-3-.7-3.74-1.49c-1.09-1.14-1.37-2.51-1.37-4.72s.28-3.56,1.37-4.69c.74-.79,1.95-1.49,3.74-1.49s3.02.7,3.76,1.49c1.09,1.14,1.37,2.51,1.37,4.69s-.28,3.58-1.37,4.72ZM19.4,47.88c-.35-.35-.81-.54-1.42-.54s-1.05.19-1.39.54c-.63.63-.7,1.67-.7,2.93s.07,2.32.7,2.95c.35.35.79.54,1.39.54s1.07-.19,1.42-.54c.63-.63.7-1.7.7-2.95s-.07-2.3-.7-2.93Z"></path><path class="cls-7" d="M40.09,56.87v-7.32c0-1.65-1.05-2.21-2-2.21s-2.02.56-2.02,2.14v7.39h-3.02v-7.32c0-1.65-1.05-2.21-2-2.21s-2.02.56-2.02,2.21v7.32h-3.02v-12.11h2.95v1.12c.79-.81,1.91-1.25,3.02-1.25,1.35,0,2.44.49,3.21,1.53,1.02-1.07,2.11-1.53,3.63-1.53,1.21,0,2.3.4,2.97,1.07.98.98,1.32,2.11,1.32,3.44v7.74h-3.02Z"></path><path class="cls-7" d="M55.26,55.92c-.67.67-1.77,1.09-2.95,1.09s-2.14-.33-2.93-1.21v5.51h-3.02v-16.55h2.93v1.14c.84-.93,1.74-1.28,3.02-1.28,1.19,0,2.28.42,2.95,1.09,1.21,1.21,1.23,3.28,1.23,5.09s-.02,3.9-1.23,5.11ZM51.43,47.34c-1.81,0-2.04,1.49-2.04,3.46s.23,3.49,2.04,3.49,2.04-1.51,2.04-3.49-.23-3.46-2.04-3.46Z"></path><path class="cls-7" d="M65.58,56.87v-1.05c-.81.81-1.58,1.16-2.97,1.16s-2.37-.35-3.09-1.07c-.65-.67-1-1.65-1-2.72,0-1.93,1.32-3.51,4.14-3.51h2.86v-.6c0-1.32-.65-1.91-2.25-1.91-1.16,0-1.7.28-2.32,1l-1.93-1.88c1.19-1.3,2.35-1.67,4.37-1.67,3.39,0,5.16,1.44,5.16,4.28v7.97h-2.95ZM65.51,51.76h-2.39c-1.09,0-1.7.51-1.7,1.37s.56,1.39,1.74,1.39c.84,0,1.37-.07,1.91-.58.33-.3.44-.79.44-1.53v-.65Z"></path><path class="cls-7" d="M78.83,56.87v-7.32c0-1.65-1.05-2.21-2-2.21s-2.02.56-2.02,2.21v7.32h-3.02v-12.11h2.95v1.12c.79-.84,1.91-1.25,3.02-1.25,1.21,0,2.18.4,2.86,1.07.98.98,1.23,2.11,1.23,3.44v7.74h-3.02Z"></path><path class="cls-7" d="M89.61,58.82c-.26.67-.53,1.19-.91,1.56-.7.7-1.6.93-2.6.93h-1.19v-2.72h.7c.86,0,1.21-.21,1.51-1.09l.51-1.49-4.14-11.25h3.18l2.51,7.48,2.42-7.48h3.18l-5.18,14.06Z"></path><path class="cls-7" d="M110.34,55.52c-.74.79-1.98,1.49-3.76,1.49s-3-.7-3.74-1.49c-1.09-1.14-1.37-2.51-1.37-4.72s.28-3.56,1.37-4.69c.74-.79,1.95-1.49,3.74-1.49s3.02.7,3.76,1.49c1.09,1.14,1.37,2.51,1.37,4.69s-.28,3.58-1.37,4.72ZM108,47.88c-.35-.35-.81-.54-1.42-.54s-1.05.19-1.39.54c-.63.63-.7,1.67-.7,2.93s.07,2.32.7,2.95c.35.35.79.54,1.39.54s1.07-.19,1.42-.54c.63-.63.7-1.7.7-2.95s-.07-2.3-.7-2.93Z"></path><path class="cls-7" d="M117.99,47.41v9.46h-3.02v-9.46h-1.25v-2.3h1.25v-1.51c0-1.72,1.07-3.46,3.53-3.46h1.72v2.56h-1.19c-.72,0-1.05.39-1.05,1.09v1.33h2.23v2.3h-2.23Z"></path></g></g><polygon class="cls-14" points="153.91 38.38 153.91 63.98 176.07 51.18 153.91 38.38"></polygon><polygon class="cls-13" points="131.74 25.58 131.74 51.18 153.91 38.38 131.74 25.58"></polygon><polygon class="cls-15" points="131.74 51.18 131.74 76.78 153.91 63.98 131.74 51.18"></polygon><polygon class="cls-11" points="176.07 25.59 176.07 51.18 198.24 38.38 176.07 25.59"></polygon><polygon class="cls-11" points="176.07 51.19 176.07 25.6 153.91 38.39 176.07 51.19"></polygon><polygon class="cls-15" points="176.07 76.78 176.07 51.18 153.91 63.98 176.07 76.78"></polygon><polygon class="cls-14" points="153.91 63.98 153.91 38.38 131.74 51.18 153.91 63.98"></polygon><polygon class="cls-8" points="198.24 63.98 176.07 51.18 198.24 38.38 198.24 63.98"></polygon><polygon class="cls-17" points="153.9 89.57 153.9 63.98 131.74 76.78 153.9 89.57"></polygon><polygon class="cls-17" points="153.9 63.98 153.9 89.57 176.06 76.78 153.9 63.98"></polygon><polygon class="cls-5" points="176.06 102.37 176.06 76.78 153.9 89.57 176.06 102.37"></polygon><polygon class="cls-20" points="153.91 38.39 153.91 12.8 131.74 25.59 153.91 38.39"></polygon><polygon class="cls-4" points="176.07 0 176.07 25.6 198.24 12.8 176.07 0"></polygon><polygon class="cls-20" points="153.91 12.8 153.91 38.39 176.07 25.6 153.91 12.8"></polygon><polygon class="cls-20" points="198.24 38.39 198.24 12.8 176.07 25.6 198.24 38.39"></polygon><polygon class="cls-4" points="176.07 25.59 176.07 0 153.91 12.8 176.07 25.59"></polygon><polygon class="cls-20" points="198.23 12.8 220.39 25.59 198.23 38.39 198.23 12.8"></polygon><polygon class="cls-8" points="198.22 38.39 198.22 63.99 220.38 51.19 198.22 38.39"></polygon><polygon class="cls-19" points="220.38 76.78 220.38 51.19 198.22 63.99 220.38 76.78"></polygon><polygon class="cls-11" points="220.38 51.19 220.38 25.6 198.22 38.4 220.38 51.19"></polygon><polygon class="cls-16" points="286.86 38.38 286.86 63.98 264.69 51.18 286.86 38.38"></polygon><polygon class="cls-9" points="309.02 25.58 309.02 51.18 286.86 38.38 309.02 25.58"></polygon><polygon class="cls-3" points="309.02 51.18 309.02 76.78 286.86 63.98 309.02 51.18"></polygon><polygon class="cls-8" points="264.69 25.59 264.69 51.18 242.53 38.38 264.69 25.59"></polygon><polygon class="cls-8" points="264.69 51.19 264.69 25.6 286.86 38.39 264.69 51.19"></polygon><polygon class="cls-3" points="264.69 76.78 264.69 51.18 286.86 63.98 264.69 76.78"></polygon><polygon class="cls-16" points="286.86 63.98 286.86 38.38 309.02 51.18 286.86 63.98"></polygon><polygon class="cls-8" points="242.53 63.98 264.7 51.18 242.53 38.38 242.53 63.98"></polygon><polygon class="cls-1" points="286.87 89.57 286.87 63.98 309.03 76.78 286.87 89.57"></polygon><polygon class="cls-1" points="286.87 63.98 286.87 89.57 264.7 76.78 286.87 63.98"></polygon><polygon class="cls-18" points="264.7 102.37 264.7 76.78 286.87 89.57 264.7 102.37"></polygon><polygon class="cls-2" points="286.86 38.39 286.86 12.8 309.02 25.59 286.86 38.39"></polygon><polygon class="cls-12" points="264.69 0 264.69 25.6 242.53 12.8 264.69 0"></polygon><polygon class="cls-2" points="286.86 12.8 286.86 38.39 264.69 25.6 286.86 12.8"></polygon><polygon class="cls-2" points="242.53 38.39 242.53 12.8 264.69 25.6 242.53 38.39"></polygon><polygon class="cls-12" points="264.69 25.59 264.69 0 286.86 12.8 264.69 25.59"></polygon><polygon class="cls-2" points="242.54 12.8 220.37 25.59 242.54 38.39 242.54 12.8"></polygon><polygon class="cls-8" points="242.55 38.39 242.55 63.99 220.38 51.19 242.55 38.39"></polygon><polygon class="cls-19" points="220.38 76.78 220.38 51.19 242.55 63.99 220.38 76.78"></polygon><polygon class="cls-11" points="220.38 51.19 220.38 25.6 242.55 38.4 220.38 51.19"></polygon><path class="cls-6" d="M356.09,51.39v-13.71l-4.49,8.92h-3.11l-4.53-8.92v13.71h-4.59v-23.53h4.53l6.15,12.72,6.11-12.72h4.53v23.53h-4.59Z"></path><path class="cls-6" d="M378.73,51.39l-1.39-4.16h-8.36l-1.42,4.16h-4.79l8.56-23.53h3.6l8.59,23.53h-4.79ZM373.25,34.8l-2.97,8.56h5.85l-2.87-8.56Z"></path><path class="cls-6" d="M394.73,42.53h-4.53v8.86h-4.59v-23.53h9.12c4.86,0,7.77,3.34,7.77,7.34s-2.91,7.34-7.77,7.34ZM394.5,31.95h-4.3v6.44h4.3c2.08,0,3.4-1.29,3.4-3.21s-1.32-3.24-3.4-3.24Z"></path><path class="cls-6" d="M411.33,51.39c-3.51,0-6.18-.75-8.45-3.05l2.93-2.93c1.46,1.46,3.44,1.95,5.59,1.95,2.67,0,4.1-1.01,4.1-2.86,0-.81-.23-1.5-.72-1.95-.45-.42-.98-.65-2.05-.81l-2.8-.39c-1.98-.29-3.44-.91-4.49-1.92-1.1-1.11-1.66-2.6-1.66-4.55,0-4.13,3.06-7.02,8.06-7.02,3.18,0,5.49.78,7.47,2.7l-2.86,2.83c-1.46-1.4-3.22-1.59-4.75-1.59-2.41,0-3.57,1.33-3.57,2.93,0,.59.19,1.2.68,1.66.45.42,1.2.78,2.14.91l2.73.39c2.11.29,3.45.88,4.42,1.79,1.24,1.17,1.79,2.86,1.79,4.91,0,4.49-3.74,7.02-8.58,7.02Z"></path><path class="cls-10" d="M342.29,76.58c-1.93,0-3.32-.45-4.55-1.7l1.3-1.28c.94.94,1.97,1.23,3.29,1.23,1.68,0,2.65-.72,2.65-1.97,0-.56-.16-1.03-.51-1.34-.33-.31-.65-.43-1.41-.54l-1.52-.22c-1.05-.14-1.88-.51-2.44-1.03-.63-.6-.94-1.41-.94-2.46,0-2.24,1.63-3.77,4.3-3.77,1.7,0,2.89.43,3.99,1.46l-1.25,1.23c-.79-.76-1.72-.99-2.8-.99-1.52,0-2.35.87-2.35,2.01,0,.47.14.88.49,1.19.33.29.85.51,1.45.6l1.46.22c1.19.18,1.86.47,2.4.96.7.61,1.05,1.54,1.05,2.64,0,2.37-1.93,3.77-4.62,3.77Z"></path><path class="cls-10" d="M356.7,76.47v-5.62h-5.22v5.62h-1.95v-12.86h1.95v5.49h5.22v-5.49h1.95v12.86h-1.95Z"></path><path class="cls-10" d="M369.39,76.47l-.89-2.58h-5.08l-.88,2.58h-2.08l4.71-12.86h1.57l4.71,12.86h-2.08ZM366.02,66.52l-2.01,5.71h3.96l-1.95-5.71Z"></path><path class="cls-10" d="M380.39,76.47l-2.71-5.42h-2.44v5.42h-1.95v-12.86h4.99c2.44,0,3.99,1.57,3.99,3.76,0,1.84-1.12,3.02-2.56,3.41l2.96,5.69h-2.28ZM378.13,65.36h-2.89v4.03h2.89c1.3,0,2.18-.74,2.18-2.01s-.88-2.02-2.18-2.02Z"></path><path class="cls-10" d="M385.12,76.47v-12.86h1.95v12.86h-1.95Z"></path><path class="cls-10" d="M398.32,76.47l-5.94-9.05v9.05h-1.95v-12.86h1.79l5.94,9.03v-9.03h1.95v12.86h-1.79Z"></path><path class="cls-10" d="M411.12,75.1c-.9.96-2.09,1.48-3.5,1.48-1.34,0-2.49-.49-3.38-1.37-1.26-1.26-1.25-2.69-1.25-5.17s-.02-3.9,1.25-5.17c.89-.89,2.01-1.37,3.38-1.37,1.75,0,2.73.54,3.88,1.7l-1.32,1.32c-.81-.81-1.41-1.26-2.56-1.26-.76,0-1.46.31-1.91.8-.63.69-.76,1.41-.76,3.99s.13,3.32.76,4.01c.45.49,1.16.78,1.91.78.85,0,1.55-.33,2.06-.9.47-.52.63-1.25.63-2.04v-.7h-2.69v-1.66h4.64v1.93c0,1.66-.29,2.75-1.14,3.65Z"></path><path class="cls-10" d="M427.1,76.47l-3.61-6.34-2.17,2.6v3.74h-1.95v-12.86h1.95v6.47l5.26-6.47h2.38l-4.17,5.04,4.61,7.82h-2.29Z"></path><path class="cls-10" d="M439.15,76.47l-5.94-9.05v9.05h-1.95v-12.86h1.79l5.94,9.03v-9.03h1.95v12.86h-1.79Z"></path><path class="cls-10" d="M451.84,75.21c-.89.89-2.02,1.37-3.4,1.37s-2.49-.49-3.38-1.37c-1.26-1.26-1.25-2.69-1.25-5.17s-.02-3.9,1.25-5.17c.89-.89,2.01-1.37,3.38-1.37s2.51.49,3.4,1.37c1.26,1.26,1.23,2.69,1.23,5.17s.04,3.9-1.23,5.17ZM450.36,66.05c-.45-.49-1.16-.8-1.92-.8s-1.46.31-1.91.8c-.63.69-.76,1.41-.76,3.99s.13,3.3.76,3.99c.45.49,1.16.79,1.91.79s1.46-.31,1.92-.79c.63-.69.76-1.41.76-3.99s-.13-3.31-.76-3.99Z"></path><path class="cls-10" d="M466.27,76.47h-1.7l-2.62-9.01-2.6,9.01h-1.7l-3.36-12.86h2.06l2.24,9.19,2.58-9.19h1.57l2.58,9.19,2.24-9.19h2.06l-3.36,12.86Z"></path><path class="cls-10" d="M471.51,76.47v-12.86h1.95v11.11h6.2v1.75h-8.15Z"></path><path class="cls-10" d="M481.87,76.47v-12.86h8.22v1.75h-6.27v3.76h5.35v1.73h-5.35v3.87h6.27v1.75h-8.22Z"></path><path class="cls-10" d="M500.6,75.26c-.81.81-1.99,1.21-3.32,1.21h-4.52v-12.86h4.52c1.34,0,2.51.4,3.32,1.21,1.39,1.39,1.3,3.27,1.3,5.13s.09,3.92-1.3,5.31ZM499.26,66.23c-.54-.6-1.26-.87-2.18-.87h-2.37v9.36h2.37c.92,0,1.64-.27,2.18-.87.67-.74.69-2.13.69-3.9s-.02-2.98-.69-3.72Z"></path><path class="cls-10" d="M512.44,75.1c-.9.96-2.09,1.48-3.5,1.48-1.34,0-2.49-.49-3.38-1.37-1.26-1.26-1.25-2.69-1.25-5.17s-.02-3.9,1.25-5.17c.89-.89,2.01-1.37,3.38-1.37,1.75,0,2.73.54,3.88,1.7l-1.32,1.32c-.81-.81-1.41-1.26-2.56-1.26-.76,0-1.46.31-1.91.8-.63.69-.76,1.41-.76,3.99s.13,3.32.76,4.01c.45.49,1.16.78,1.91.78.85,0,1.55-.33,2.06-.9.47-.52.63-1.25.63-2.04v-.7h-2.69v-1.66h4.64v1.93c0,1.66-.29,2.75-1.14,3.65Z"></path><path class="cls-10" d="M516.36,76.47v-12.86h8.22v1.75h-6.27v3.76h5.35v1.73h-5.35v3.87h6.27v1.75h-8.22Z"></path><path class="cls-6" d="M445.57,39.16v2.09c0,7.01-3.26,10.14-8.44,10.14s-8.77-3.12-8.77-10.14v-2.92c0-7.41,3.62-10.47,8.77-10.47,4.82,0,7.71,2.73,8.41,7.41h-4.45c-.4-2.09-1.63-3.49-3.95-3.49-2.69,0-4.12,1.83-4.12,6.21v3.26c0,4.39,1.43,6.21,4.12,6.21s3.69-1.63,3.95-4.39h-3.85v-3.92h8.34Z"></path><path class="cls-6" d="M461.02,51.09l-4.12-9.01h-3.72v9.01h-4.65v-22.93h8.21c5.28,0,8.57,2.36,8.57,7.01,0,3.09-1.43,5.12-3.92,6.15l4.75,9.77h-5.12ZM456.3,38.16c2.76,0,4.35-.6,4.35-2.99s-1.59-3.06-4.35-3.06h-3.12v6.05h3.12Z"></path><path class="cls-6" d="M477,51.39c-5.15,0-8.77-3.12-8.77-10.14v-3.26c0-7.08,3.62-10.14,8.77-10.14s8.81,3.06,8.81,10.14v3.26c0,7.01-3.62,10.14-8.81,10.14ZM472.88,41.25c0,4.39,1.43,6.21,4.12,6.21s4.15-1.83,4.15-6.21v-3.26c0-4.39-1.46-6.21-4.15-6.21s-4.12,1.83-4.12,6.21v3.26Z"></path><path class="cls-6" d="M507.22,27.86v13.8c0,6.87-3.77,9.73-8.92,9.73s-8.92-2.86-8.92-9.69v-13.84h4.71v13.84c0,3.97,1.31,5.72,4.21,5.72s4.21-1.75,4.21-5.72v-13.84h4.71Z"></path><path class="cls-6" d="M516.51,43.06v8.18h-4.71v-23.23h8.31c5.35,0,8.68,2.46,8.68,7.44s-3.3,7.61-8.68,7.61h-3.6ZM519.44,39.08c3.27,0,4.65-1.14,4.65-3.64,0-2.22-1.38-3.43-4.65-3.43h-2.93v7.07h2.93Z"></path></svg>